# xmcd CD database file
#
# Track frame offsets:
#	150
#	7911
#	28178
#	43131
#	59128
#	91568
#	108833
#	127386
#	160748
#	177238
#	187471
#
# Disc length: 2734 seconds
#
# Revision: 0
# Processed by: cddbd v1.5.2PL0 Copyright (c) Steve Scherf et al.
# Submitted via: CDex 1.70beta2
#
DISCID=970aac0b
DTITLE=Big T Williams - Westley 'junebug" Jefferson - Meet Me In The Cotton Field
DYEAR=2005
DGENRE=Blues
TTITLE0=Meet Me In The Bottom
TTITLE1=Packetfull Of Money
TTITLE2=C. C. Rider
TTITLE3=Incarcerated Blues
TTITLE4=The Wreck
TTITLE5=The Wolves Are Howling
TTITLE6=Lets Go Down To Red's
TTITLE7=Catfish Blues
TTITLE8=Meet In The Cotton Fields
TTITLE9=Can't Be Satisfied
TTITLE10=Blues Is Like The River
EXTD=YEAR: 2005
EXTT0=
EXTT1=
EXTT2=
EXTT3=
EXTT4=
EXTT5=
EXTT6=
EXTT7=
EXTT8=
EXTT9=
EXTT10=
PLAYORDER=
